<svg width="165" height="33" viewBox="0 0 165 33" fill="none" xmlns="http://www.w3.org/2000/svg">
<path d="M68.132 9.59701C66.8075 8.47624 67.1671 6.37948 68.7753 5.84594C70.5952 5.24213 72.3678 6.9667 71.7089 8.69989C71.1711 10.1145 69.2986 10.584 68.132 9.59701ZM127.303 18.5209C127.176 20.6113 128.099 22.5102 129.838 22.5459C131.141 22.644 132.663 21.189 132.549 18.6181C132.454 16.4619 131.906 14.7743 129.918 14.6947C128.336 14.7887 127.444 16.1902 127.303 18.5209ZM136.507 18.5179C136.589 23.005 133.828 25.9429 129.886 26.0906C126.158 26.2303 123.232 22.9383 123.266 18.5975C123.298 14.4592 126.071 11.3597 129.727 11.3031C133.622 11.2428 136.429 14.3144 136.507 18.5179ZM114.372 11.5258L117.188 11.5375L117.882 13.7836C118.682 11.2838 120.971 11.2456 122.164 11.3927L122.168 15.6664L118.303 15.8954L118.287 25.7416H114.339L114.372 11.5258ZM74.9986 11.4835L77.8148 11.4952L78.5088 13.7414C79.3084 11.2415 81.5969 11.2033 82.7908 11.3504L82.7947 15.6242L78.9298 15.8531L78.9134 25.6993H74.9656L74.9986 11.4835ZM85.5313 25.7701L85.5322 16.4329L85.55 6.89991L96.5054 6.88793L96.5027 10.1858L89.9277 10.1921C89.9315 11.5438 89.95 13.2874 89.9436 14.6391L95.4233 14.6863L95.4236 17.9967L89.9249 17.979L89.9398 22.4605L93.8499 22.4789L96.5066 22.4938L96.509 25.7717L85.5313 25.7701ZM67.6289 25.6541L67.6367 11.4694H71.5312L71.51 25.6887L67.6289 25.6541ZM58.9666 18.4214L57.2694 11.4505L55.6493 18.4346L58.9666 18.4214ZM49.3919 25.6011L54.3953 7.0636L60.2178 7.09855L65.2949 25.6744L60.6265 25.6894L59.7875 22.4736C58.1519 22.4999 56.3175 22.5334 54.6829 22.4891L53.8854 25.6729L49.3919 25.6011ZM160.785 22.0466L160.747 19.5427C158.311 19.1837 155.751 20.4826 157.08 22.554C157.859 23.7681 160.003 23.0763 160.785 22.0466ZM155.981 25.9747C153.828 25.35 152.703 22.9208 153.179 20.5592C153.491 19.0123 154.561 17.1338 158.747 16.889L160.672 16.7765C160.859 16.7654 160.665 15.5467 160.314 15.0781C159.067 13.305 156.733 14.4466 154.587 15.0082L153.733 12.3326C154.415 11.9779 155.291 11.7237 156.466 11.3188C158.611 10.5797 161.557 11.0314 162.816 11.8259C163.57 12.3021 164.146 13.0867 164.602 14.1202C164.768 14.4967 164.943 15.4239 164.953 15.888L165 25.7481L161.968 25.77L161.277 24.1149C159.65 26.0644 158.154 26.5882 155.981 25.9747ZM102.388 26.0193C101.102 25.709 100.292 25.1341 99.6517 24.0764C99.1566 23.2587 99.0925 22.4842 99.0925 17.3112V11.4694H102.987L103.008 20.3386C103.005 21.011 103.02 21.5425 103.233 21.9446C104.01 23.4163 106.022 23.1548 106.671 21.7293C106.816 21.4099 106.817 20.8674 106.816 20.4501L106.842 11.497L110.946 11.4694L110.957 26.0202L107.737 26.0093L107.178 24.2018C106.647 24.7476 106.044 25.3345 105.414 25.673C104.434 26.073 103.303 26.1944 102.388 26.0193ZM147.047 21.2345C147.349 20.1662 147.398 19.2807 147.385 18.1353C147.36 15.9724 146.777 13.9 144.7 13.9936C144.379 14.0079 143.538 14.1185 142.949 14.8699L142.943 22.1089C143.8 23.4642 146.55 22.9984 147.047 21.2345ZM138.98 11.053L142.116 11.0683L142.575 12.7255C142.797 12.03 144.547 10.8643 145.866 10.8436C148.046 10.6295 150.031 12.0834 150.895 14.5275C151.472 16.1618 151.521 20.0361 151.026 22.0055C150.306 24.8625 147.458 26.4312 144.74 25.9887C144.093 25.8833 143.541 25.586 142.942 25.3845L142.907 30.3879L138.988 30.3825L138.98 11.053ZM18.0268 23.7115C17.3614 19.4261 18.5352 15.0153 19.5631 11.9281C21.6756 6.72988 20.6579 1.57488 14.8151 4.13092C13.1523 4.89623 10.6108 7.53466 9.43929 9.73961C5.82591 16.5402 7.0408 26.8199 11.4655 26.8847C13.2664 26.8157 15.682 25.0759 18.0268 23.7115ZM5.48343 31.5983C3.87407 31.0855 1.76884 28.8297 0.956738 26.7479C-0.341285 22.9729 -0.336383 17.7745 1.08087 13.5664C3.07523 7.82644 7.41957 2.77467 11.638 1.15115C15.5111 -0.332345 21.4973 -0.416764 25.4184 3.83013C28.4658 0.931167 32.9903 -0.0162569 35.5044 0.0205309C41.755 -0.255502 45.0184 2.26182 45.0184 6.97027C45.0184 8.65776 43.7446 11.0985 42.2189 12.3345C40.4231 13.7892 29.258 20.8071 28.7225 20.8071L28.6913 17.4954L31.9867 15.1694C36.2342 12.1713 37.6755 10.6132 38.1459 8.51075C39.3486 3.1369 33.7759 1.63444 29.6524 6.2208C25.5072 10.8312 23.9584 20.4513 26.625 25.0237C28.675 28.5389 32.7414 27.4491 39.1702 23.6326L41.6453 22.045L43.394 24.4841C40.907 26.6278 38.3367 28.4805 35.7314 30.1286C33.4084 31.417 31.1934 31.9906 28.5415 31.9906C23.6089 31.912 20.4918 30.6245 19.0373 27.2156C18.9236 27.2054 17.77 28.1491 16.3184 29.1255C12.9985 31.3511 8.91614 32.7488 5.48343 31.5983Z" fill="white"/>
</svg>
