<svg width="165" height="25" viewBox="0 0 165 25" fill="none" xmlns="http://www.w3.org/2000/svg">
<path d="M157.028 19.7878C159.199 21.7358 161.634 23.2447 164.333 24.3145C165.253 24.6764 165.221 24.8839 164.237 24.9372C159.966 25.1607 156.62 23.7636 152.501 21.0093C151.506 20.344 149.818 19.9767 147.439 19.9075C147.412 19.9076 147.386 19.9021 147.361 19.8916C147.336 19.8811 147.314 19.8657 147.295 19.8463C147.277 19.8269 147.262 19.8039 147.253 19.7788C147.243 19.7536 147.239 19.7268 147.24 19.7V19.4844C147.24 19.4061 147.271 19.3309 147.326 19.2755C147.382 19.2201 147.457 19.189 147.535 19.189L155.343 19.197C155.811 19.197 155.881 19.0347 155.551 18.71L154.162 17.3368C154.03 17.2083 153.871 17.108 153.694 17.0421C153.517 16.9762 153.326 16.9461 153.132 16.9536C152.743 16.9643 151.846 16.7993 150.441 16.4586C142.753 14.5825 140.582 6.01615 145.38 0.148242C145.566 -0.0752975 145.694 -0.0460245 145.763 0.236061C147.274 6.15986 149.885 11.5115 153.595 16.291C154.505 17.4566 158.241 17.1532 159.646 18.3108C161.014 19.4445 160.828 19.8383 159.087 19.4924C158.449 19.37 157.807 19.3327 157.163 19.3806C156.801 19.4125 156.756 19.5483 157.028 19.7878Z" fill="white"/>
<path d="M26.8718 6.51912C27.9741 6.51912 28.8677 5.62553 28.8677 4.52323C28.8677 3.42093 27.9741 2.52734 26.8718 2.52734C25.7695 2.52734 24.8759 3.42093 24.8759 4.52323C24.8759 5.62553 25.7695 6.51912 26.8718 6.51912Z" fill="white"/>
<path d="M84.4092 11.8122C82.9562 16.5944 87.6745 21.5681 91.3709 16.6583C91.5518 16.4134 91.7488 16.4001 91.9617 16.6183L92.4487 17.1293C92.6456 17.3315 92.6695 17.5524 92.5205 17.7919C91.0036 20.2269 87.2993 20.7778 85.0798 19.3567C80.4733 16.4108 81.591 7.78853 87.5947 7.21372C89.4947 7.02744 91.0994 7.71934 92.4087 9.28944C92.5054 9.40582 92.5544 9.55433 92.5455 9.70435C92.5365 9.85438 92.4705 9.99448 92.3608 10.0958L91.8659 10.5668C91.5731 10.8436 91.331 10.8037 91.1394 10.4471C89.4389 7.25364 85.3273 8.81043 84.4092 11.8122Z" fill="white"/>
<path d="M6.72928 11.9718C7.33603 11.9186 7.4478 11.6578 7.06459 11.1894L6.75324 10.8142C6.60452 10.6352 6.4202 10.4884 6.21156 10.3827C6.00291 10.277 5.77431 10.2147 5.53973 10.1995C4.29962 10.1196 3.1766 10.4416 2.17068 11.1655C2.05891 11.2506 1.97109 11.2294 1.90722 11.1016L0.861374 8.99396C0.833721 8.94108 0.828248 8.87918 0.846098 8.82117C0.863948 8.76315 0.903742 8.71351 0.957177 8.6826C4.31825 6.75857 10.9206 6.34342 10.8009 11.8042C10.737 14.4334 10.7716 17.0574 10.9047 19.676C10.9153 19.9368 10.7929 20.0938 10.5374 20.147C9.53151 20.3546 8.60276 20.1922 7.75118 19.66C7.53828 19.5269 7.31741 19.5163 7.08854 19.6281C0.102937 23.061 -2.69929 13.7522 3.21652 12.387C3.75408 12.2592 4.925 12.1209 6.72928 11.9718ZM7.33603 16.5624L7.12846 14.9816C7.11861 14.9045 7.09365 14.8301 7.05499 14.7627C7.01633 14.6952 6.96475 14.6361 6.90319 14.5886C6.84163 14.5412 6.77131 14.5063 6.69626 14.4861C6.62121 14.4658 6.5429 14.4606 6.46583 14.4707L5.11661 14.6543C4.67241 14.713 4.26329 14.8972 3.97895 15.1666C3.6946 15.436 3.55823 15.7685 3.59973 16.0913L3.64763 16.4107C3.69029 16.7336 3.90761 17.0201 4.25188 17.2072C4.59615 17.3943 5.03923 17.4667 5.48385 17.4086L6.82509 17.225C6.90219 17.2152 6.9766 17.1902 7.04404 17.1515C7.11148 17.1129 7.17062 17.0613 7.21809 16.9997C7.26556 16.9382 7.30041 16.8679 7.32065 16.7928C7.34089 16.7178 7.34611 16.6394 7.33603 16.5624Z" fill="white"/>
<path d="M37.1067 11.2213L36.9231 10.894C36.8144 10.704 36.6611 10.5431 36.4762 10.4249C36.2913 10.3068 36.0803 10.2349 35.8613 10.2154C34.6052 10.0983 33.4369 10.3538 32.3565 10.9818C32.101 11.1308 31.9094 11.0723 31.7817 10.8062L30.9753 9.18552C30.8316 8.88747 30.9061 8.66393 31.1989 8.51491C34.552 6.76651 40.7791 6.35136 40.7153 11.7802C40.6833 14.4148 40.7499 17.044 40.9149 19.6679C40.9308 19.9181 40.8191 20.0724 40.5795 20.131C39.5577 20.3758 38.6395 20.2028 37.8252 19.612C37.5964 19.4417 37.3595 19.4284 37.1147 19.5721C30.2009 23.5 25.6663 12.0915 36.6596 12.0037C37.2504 11.9984 37.3994 11.7376 37.1067 11.2213ZM34.0171 15.1892C33.8825 15.2661 33.7673 15.373 33.6805 15.5013C33.5937 15.6297 33.5377 15.7761 33.5168 15.9292C33.496 16.0822 33.5108 16.2378 33.5602 16.3836C33.6096 16.5294 33.6922 16.6616 33.8015 16.7699C34.6212 17.5842 35.6191 17.7013 36.7953 17.1212C37.0295 17.0094 37.1466 16.8231 37.1466 16.5623L37.1626 15.0135C37.1679 14.7474 37.0375 14.6037 36.7714 14.5824C35.7868 14.4972 34.8686 14.6995 34.0171 15.1892Z" fill="white"/>
<path d="M46.4954 8.37129C48.7866 7.55697 51.2216 6.49516 53.1217 8.61878C54.8142 10.5029 54.1356 17.3209 54.1037 19.8117C54.1037 20.0512 53.9813 20.171 53.7365 20.171L51.1338 20.179C50.873 20.1843 50.7426 20.0566 50.7426 19.7958L50.6947 11.9559C50.6933 11.7136 50.6351 11.4751 50.5247 11.2594C50.4144 11.0437 50.2549 10.8569 50.0593 10.714C49.8636 10.5712 49.6371 10.4762 49.3981 10.4367C49.159 10.3973 48.9141 10.4145 48.6829 10.4869L48.1799 10.6546C46.9504 11.0431 46.3357 11.8814 46.3357 13.1694V19.7878C46.3357 20.0592 46.2 20.1923 45.9285 20.1869L43.1343 20.171C42.8735 20.171 42.7431 20.0406 42.7431 19.7798V8.05195C42.7431 7.83906 42.8442 7.71132 43.0465 7.66874C44.1003 7.43455 45.0397 7.63414 45.8647 8.26751C46.0563 8.41653 46.2665 8.45113 46.4954 8.37129Z" fill="white"/>
<path d="M65.4882 10.8382C65.4882 11.0298 65.4004 11.0884 65.2248 11.0139C56.3471 7.13386 57.6244 20.6979 64.7537 16.6742C65.0571 16.5039 65.2673 16.5837 65.3844 16.9137L66.0151 18.6701C66.1216 18.9681 66.0338 19.1917 65.7517 19.3407C62.5104 21.0811 57.6883 20.8656 56.1235 16.9696C53.5528 10.5428 58.9896 5.4653 65.2966 8.10785C65.4297 8.16108 65.4962 8.25954 65.4962 8.40324L65.4882 10.8382Z" fill="white"/>
<path d="M73.6874 11.5328C73.4878 9.45709 70.1107 10.2714 69.0729 10.9101C68.7109 11.1336 68.4368 11.0565 68.2505 10.6786L67.5719 9.32935C67.3803 8.95678 67.4708 8.67204 67.8434 8.47511C70.2544 7.21371 75.4437 6.44729 76.9127 9.52894C77.8628 11.5248 77.248 17.1852 77.5115 19.7559C77.5328 19.9634 77.4423 20.0885 77.24 20.1311C76.1383 20.3812 75.1563 20.1976 74.2941 19.5802C74.0493 19.4046 73.8044 19.3993 73.5596 19.5643C71.2444 21.0891 67.4522 20.5303 66.8614 17.3768C65.9513 12.4908 69.8393 12.2673 73.3201 11.9719C73.5915 11.9506 73.714 11.8043 73.6874 11.5328ZM73.7672 16.6343L73.6075 15.0456C73.5914 14.8922 73.5151 14.7514 73.3954 14.6541C73.2757 14.5568 73.1223 14.511 72.9688 14.5266L72.0188 14.6224C71.4796 14.6772 70.9765 14.8678 70.6202 15.1523C70.2639 15.4367 70.0835 15.7918 70.1187 16.1393L70.1347 16.2671C70.1709 16.6138 70.419 16.9245 70.8246 17.131C71.2301 17.3375 71.76 17.423 72.2982 17.3688L73.2483 17.273C73.4017 17.2569 73.5424 17.1806 73.6397 17.0609C73.737 16.9412 73.7828 16.7878 73.7672 16.6343Z" fill="white"/>
<path d="M100.991 18.9815C94.6202 23.4922 89.2073 12.1875 101.135 12.2114C101.385 12.2114 101.534 12.089 101.582 11.8442C102.26 8.16375 97.5102 8.37133 95.4585 9.76845C95.4092 9.80036 95.3496 9.81235 95.2917 9.80197C95.2339 9.7916 95.1822 9.75964 95.1471 9.71256L94.4765 8.81042C94.386 8.68269 94.41 8.5789 94.5483 8.49906C96.8955 7.16847 99.1708 6.95558 101.374 7.86038C104.216 9.03396 103.498 17.0175 103.386 19.4764C103.385 19.5381 103.369 19.5985 103.341 19.6534C103.312 19.7082 103.272 19.7561 103.222 19.7936C103.172 19.831 103.115 19.8571 103.053 19.8699C102.992 19.8827 102.928 19.8819 102.867 19.8676C102.356 19.7505 101.954 19.4924 101.662 19.0932C101.475 18.8378 101.252 18.8005 100.991 18.9815ZM96.3606 17.249C97.4064 19.5483 100.768 18.1512 101.718 16.6503C102.221 15.8519 102.021 14.7901 102.021 13.856C102.016 13.6059 101.891 13.4728 101.646 13.4568C99.2427 13.2652 94.8597 13.9598 96.3606 17.249Z" fill="white"/>
<path d="M108.599 8.9861C109.616 7.69276 110.957 7.18448 112.623 7.46124C112.73 7.47721 112.772 7.53841 112.751 7.64486L112.535 8.82643C112.524 8.89458 112.488 8.95598 112.435 8.99875C112.381 9.04152 112.315 9.06261 112.248 9.05795C106.835 8.69071 108.208 16.315 108.208 19.4286C108.208 19.6628 108.091 19.7799 107.857 19.7799L106.819 19.7878C106.548 19.7932 106.412 19.6601 106.412 19.3887V8.0121C106.412 7.74599 106.545 7.61293 106.811 7.61293L107.386 7.62091C107.636 7.62091 107.817 7.73534 107.929 7.9642C108.072 8.25693 108.16 8.55765 108.192 8.86634C108.235 9.23891 108.371 9.27883 108.599 8.9861Z" fill="white"/>
<path d="M122.275 17.8558C121.322 19.1118 119.957 19.6547 118.18 19.4844C111.897 18.8856 111.801 9.40916 117.142 7.61286C118.914 7.02208 120.609 7.44254 122.227 8.87426C122.266 8.90884 122.315 8.93071 122.366 8.93696C122.418 8.94321 122.47 8.93353 122.516 8.90922C122.562 8.88491 122.6 8.84713 122.624 8.80094C122.648 8.75474 122.657 8.70233 122.65 8.65072L122.595 8.25953C122.541 7.84971 122.72 7.63947 123.129 7.62883L123.744 7.61286C124.01 7.60754 124.146 7.73794 124.151 8.00405C124.199 11.602 124.215 15.1946 124.199 18.7818C124.175 24.3144 118.299 25.5758 114.356 23.2127C114.105 23.0584 114.028 22.8428 114.124 22.566L114.324 22.0232C114.441 21.7038 114.654 21.6187 114.962 21.7677C118.826 23.6438 122.603 23.2127 122.491 17.9276C122.485 17.6934 122.414 17.6695 122.275 17.8558ZM118.72 18.1577C119.207 18.1696 119.692 18.06 120.149 17.8352C120.605 17.6104 121.022 17.2747 121.377 16.8473C121.733 16.42 122.019 15.9093 122.219 15.3445C122.42 14.7797 122.53 14.1718 122.546 13.5555C122.576 12.3109 122.214 11.1077 121.54 10.2106C120.865 9.31348 119.933 8.79598 118.949 8.77191C118.462 8.76 117.976 8.86959 117.52 9.09442C117.064 9.31925 116.646 9.65493 116.291 10.0823C115.936 10.5096 115.65 11.0203 115.449 11.5851C115.249 12.1499 115.138 12.7578 115.123 13.3741C115.093 14.6187 115.454 15.8219 116.129 16.719C116.803 17.6161 117.735 18.1336 118.72 18.1577Z" fill="white"/>
<path d="M137.657 14.7707C137.674 16.1046 137.159 17.3902 136.228 18.3449C135.296 19.2996 134.023 19.8451 132.69 19.8614L131.763 19.8728C130.43 19.8891 129.144 19.3748 128.189 18.4432C127.235 17.5115 126.689 16.2388 126.673 14.9049L126.644 12.574C126.628 11.2401 127.142 9.95447 128.074 8.99977C129.006 8.04508 130.278 7.49958 131.612 7.48327L132.538 7.47193C133.872 7.45566 135.158 7.96991 136.112 8.90156C137.067 9.83321 137.613 11.1059 137.629 12.4398L137.657 14.7707ZM132.134 18.5503C133.165 18.5521 134.155 18.0365 134.886 17.117C135.617 16.1975 136.029 14.9494 136.031 13.6472C136.032 13.0024 135.933 12.3638 135.738 11.7678C135.544 11.1717 135.258 10.63 134.898 10.1734C134.538 9.71684 134.11 9.35443 133.639 9.10687C133.167 8.8593 132.662 8.73142 132.151 8.73054C131.12 8.72875 130.13 9.24431 129.4 10.1638C128.669 11.0833 128.257 12.3315 128.255 13.6336C128.254 14.2784 128.353 14.9171 128.548 15.5131C128.742 16.1091 129.027 16.6509 129.388 17.1075C129.748 17.564 130.176 17.9264 130.647 18.174C131.118 18.4215 131.624 18.5494 132.134 18.5503Z" fill="white"/>
<path d="M17.7066 14.7979C17.7236 14.8413 17.7533 14.8785 17.7917 14.9047C17.8302 14.9309 17.8756 14.945 17.9222 14.945C17.9687 14.945 18.0142 14.9309 18.0527 14.9047C18.0911 14.8785 18.1208 14.8413 18.1377 14.7979L20.7244 7.79636C20.767 7.67395 20.8548 7.61274 20.9879 7.61274L24.1573 7.62073C24.1807 7.62148 24.2034 7.62789 24.2237 7.63942C24.244 7.65095 24.2612 7.66724 24.2738 7.68689C24.2863 7.70654 24.2939 7.72896 24.2959 7.7522C24.2979 7.77545 24.2942 7.79883 24.2851 7.82031L19.3433 19.7078C19.2528 19.9207 19.0958 20.0618 18.8722 20.131C17.531 20.5301 16.5091 19.8914 15.9662 18.5821C14.476 14.9949 13.0043 11.4103 11.5513 7.8283C11.5418 7.80731 11.5378 7.78425 11.5397 7.76129C11.5416 7.73834 11.5493 7.71623 11.562 7.69707C11.5748 7.6779 11.5923 7.6623 11.6127 7.65174C11.6332 7.64118 11.656 7.636 11.6791 7.63669L14.8006 7.60476C14.9603 7.59944 15.0694 7.67395 15.1279 7.8283L17.7066 14.7979Z" fill="white"/>
<path d="M28.237 7.61279H25.5066C25.3258 7.61279 25.1793 7.75934 25.1793 7.94012V19.8516C25.1793 20.0324 25.3258 20.1789 25.5066 20.1789H28.237C28.4177 20.1789 28.5643 20.0324 28.5643 19.8516V7.94012C28.5643 7.75934 28.4177 7.61279 28.237 7.61279Z" fill="white"/>
</svg>
