<svg width="40" height="40" viewBox="0 0 40 40" fill="none" xmlns="http://www.w3.org/2000/svg">
<rect width="40" height="40" rx="5.33333" fill="#F3E7EC"/>
<path d="M32.2222 17.0224C32.2918 16.7369 32.2522 16.4357 32.1111 16.1779C31.751 15.5531 31.2711 15.0055 30.6988 14.5666C30.1266 14.1277 29.4733 13.8061 28.7765 13.6203C28.0797 13.4345 27.353 13.3881 26.6382 13.4838C25.9234 13.5795 25.2345 13.8154 24.6111 14.1779L22.2222 15.5557L16.6667 12.9446C16.5087 12.8628 16.3334 12.8201 16.1556 12.8201C15.9777 12.8201 15.8024 12.8628 15.6444 12.9446L12.3111 14.8668C12.1464 14.9618 12.0088 15.0976 11.9115 15.261C11.8142 15.4244 11.7605 15.61 11.7556 15.8002C11.7502 15.9917 11.7944 16.1813 11.884 16.3507C11.9735 16.5201 12.1054 16.6634 12.2667 16.7668L15.9333 19.0779L14 20.189L8.68889 20.8335C8.47539 20.8599 8.27414 20.9477 8.10958 21.0863C7.94503 21.2249 7.82424 21.4082 7.76188 21.6141C7.69952 21.82 7.69828 22.0396 7.7583 22.2462C7.81832 22.4528 7.93702 22.6375 8.1 22.7779L12.0333 26.1779C12.5512 26.6721 13.2143 26.9865 13.9247 27.0746C14.6351 27.1626 15.355 27.0197 15.9778 26.6668L31.6667 17.7002C31.8004 17.6307 31.9186 17.5349 32.0141 17.4184C32.1096 17.3018 32.1804 17.1671 32.2222 17.0224ZM14.9667 24.8002C14.7532 24.9176 14.5071 24.9616 14.2662 24.9255C14.0253 24.8894 13.8029 24.7751 13.6333 24.6002L11.5222 22.789L14.5556 22.4224C14.7046 22.4033 14.8483 22.3541 14.9778 22.2779L18.7111 20.1335C18.8774 20.0375 19.016 19.9 19.1134 19.7345C19.2108 19.569 19.2636 19.3811 19.2667 19.189C19.2689 18.9983 19.2221 18.8103 19.1306 18.6429C19.0392 18.4756 18.9062 18.3346 18.7444 18.2335L15.0778 15.9113L16.3 15.2113L21.8556 17.789C22.0135 17.8709 22.1888 17.9136 22.3667 17.9136C22.5445 17.9136 22.7198 17.8709 22.8778 17.789L25.7222 16.1446C26.3051 15.8179 26.9727 15.674 27.6385 15.7315C28.3042 15.7889 28.9373 16.0451 29.4556 16.4668L14.9667 24.8002Z" fill="#7F0039"/>
</svg>
