<svg width="40" height="40" viewBox="0 0 40 40" fill="none" xmlns="http://www.w3.org/2000/svg">
<rect width="40" height="40" rx="5.33333" fill="#F3E7EC"/>
<path d="M9.448 25.5V23.18L13.496 19.436C13.752 19.1907 13.9387 18.9773 14.056 18.796C14.184 18.6147 14.2693 18.4547 14.312 18.316C14.3547 18.1667 14.376 18.028 14.376 17.9C14.376 17.6227 14.2853 17.4093 14.104 17.26C13.9227 17.1 13.6507 17.02 13.288 17.02C12.9573 17.02 12.6427 17.1107 12.344 17.292C12.0453 17.4627 11.8107 17.7187 11.64 18.06L8.792 16.636C9.19733 15.868 9.80533 15.244 10.616 14.764C11.4267 14.284 12.4347 14.044 13.64 14.044C14.5253 14.044 15.3093 14.188 15.992 14.476C16.6747 14.764 17.208 15.1693 17.592 15.692C17.976 16.2147 18.168 16.8333 18.168 17.548C18.168 17.9107 18.12 18.2733 18.024 18.636C17.9387 18.9987 17.7573 19.3827 17.48 19.788C17.2027 20.1827 16.792 20.6253 16.248 21.116L13.208 23.884L12.616 22.572H18.424V25.5H9.448ZM19.1024 23.58V21.18L23.8544 14.3H27.7264L23.1504 21.18L21.3904 20.652H30.0624V23.58H19.1024ZM24.9104 25.5V23.58L25.0224 20.652V18.94H28.5744V25.5H24.9104Z" fill="#7F0039"/>
</svg>
