<svg width="40" height="40" viewBox="0 0 40 40" fill="none" xmlns="http://www.w3.org/2000/svg">
<rect width="40" height="40" rx="5.33333" fill="#F3E7EC"/>
<g clip-path="url(#clip0_11011_150)">
<path fill-rule="evenodd" clip-rule="evenodd" d="M22.0114 7.42112C21.4462 6.93518 20.7254 6.66797 19.98 6.66797C19.2346 6.66797 18.5138 6.93518 17.9486 7.42112C17.5896 7.72855 17.2328 8.03839 16.8781 8.35065C16.4152 8.25736 15.9517 8.16719 15.4876 8.08017C14.7548 7.94164 13.9965 8.07054 13.3506 8.44347C12.7048 8.8164 12.214 9.40861 11.9676 10.1126C11.8089 10.5646 11.6546 11.0141 11.5048 11.4611C11.0476 11.6135 10.5898 11.771 10.1314 11.9335C9.42748 12.1799 8.83527 12.6706 8.46234 13.3165C8.08942 13.9624 7.96051 14.7207 8.09904 15.4535C8.18793 15.9233 8.27936 16.39 8.37333 16.8535C8.05587 17.2141 7.73841 17.5792 7.42095 17.9487C6.93501 18.514 6.66779 19.2347 6.66779 19.9802C6.66779 20.7256 6.93501 21.4463 7.42095 22.0116C7.73841 22.3837 8.05841 22.7506 8.38095 23.1126C8.28444 23.5875 8.19047 24.0656 8.09904 24.5468C7.81333 26.063 8.67619 27.5564 10.1314 28.0668C10.5898 28.2294 11.0476 28.3868 11.5048 28.5392C11.6559 28.9862 11.8102 29.4357 11.9676 29.8878C12.2137 30.5921 12.7042 31.1847 13.3502 31.558C13.9961 31.9313 14.7545 32.0605 15.4876 31.9221C15.9651 31.8319 16.44 31.7386 16.9124 31.6421C17.2667 31.957 17.6254 32.2694 17.9886 32.5792C19.1562 33.5849 20.8838 33.5849 22.0514 32.5792C22.4133 32.2706 22.7702 31.9608 23.1219 31.6497C23.5829 31.7424 24.0463 31.8332 24.5124 31.9221C26.0267 32.2078 27.5219 31.343 28.0324 29.8878C28.1911 29.4357 28.3454 28.9862 28.4952 28.5392C28.9524 28.3868 29.4102 28.2294 29.8686 28.0668C30.5722 27.8201 31.1639 27.3292 31.5365 26.6833C31.909 26.0375 32.0377 25.2794 31.899 24.5468C31.8114 24.0796 31.7206 23.6129 31.6267 23.1468C31.9441 22.7862 32.2616 22.4211 32.579 22.0516C33.065 21.4863 33.3322 20.7656 33.3322 20.0202C33.3322 19.2747 33.065 18.554 32.579 17.9887C32.2616 17.6189 31.9416 17.2513 31.619 16.8859C31.7156 16.411 31.8089 15.9335 31.899 15.4535C32.0377 14.7209 31.909 13.9629 31.5365 13.317C31.1639 12.6711 30.5722 12.1803 29.8686 11.9335C29.4119 11.7729 28.9541 11.6155 28.4952 11.4611C28.3441 11.0129 28.1898 10.5633 28.0324 10.1126C27.786 9.40861 27.2952 8.8164 26.6493 8.44347C26.0034 8.07054 25.2452 7.94164 24.5124 8.08017C24.0362 8.16906 23.5613 8.26176 23.0876 8.35827C22.731 8.04349 22.3722 7.7311 22.0114 7.42112ZM19.499 9.22493C19.6325 9.1099 19.8028 9.04663 19.979 9.04663C20.1552 9.04663 20.3256 9.1099 20.459 9.22493C20.9644 9.66049 21.4616 10.096 21.9505 10.5316C22.2324 10.783 22.6171 10.8859 22.9867 10.8097C23.6343 10.6738 24.2902 10.5437 24.9543 10.4192C25.1272 10.3866 25.3062 10.4171 25.4586 10.5051C25.611 10.5932 25.7267 10.733 25.7848 10.8992C26.0057 11.5291 26.2184 12.1545 26.4229 12.7754C26.5409 13.1335 26.8229 13.4154 27.1809 13.5335C27.8108 13.7405 28.4438 13.9564 29.08 14.1811C29.4229 14.3011 29.6286 14.6535 29.56 15.0116C29.4343 15.677 29.3035 16.3354 29.1676 16.9868C29.1301 17.1696 29.1357 17.3586 29.184 17.5388C29.2322 17.719 29.3219 17.8854 29.4457 18.0249C29.8902 18.5202 30.3327 19.0256 30.7733 19.5411C30.8884 19.6746 30.9516 19.8449 30.9516 20.0211C30.9516 20.1973 30.8884 20.3677 30.7733 20.5011C30.3352 21.0116 29.8952 21.5145 29.4533 22.0097C29.3298 22.149 29.2403 22.3151 29.192 22.495C29.1438 22.6748 29.138 22.8634 29.1752 23.0459C29.3086 23.6859 29.4368 24.3335 29.56 24.9887C29.5931 25.162 29.5629 25.3414 29.4748 25.4942C29.3867 25.647 29.2465 25.763 29.08 25.8211C28.4451 26.0446 27.8121 26.2599 27.1809 26.4668C27.0045 26.5258 26.8441 26.6249 26.7125 26.7565C26.581 26.8881 26.4818 27.0484 26.4229 27.2249C26.2171 27.8472 26.0044 28.4726 25.7848 29.1011C25.7267 29.2673 25.611 29.4071 25.4586 29.4952C25.3062 29.5833 25.1272 29.6138 24.9543 29.5811C24.308 29.4597 23.6629 29.3321 23.019 29.1983C22.8366 29.161 22.648 29.1668 22.4681 29.2151C22.2883 29.2633 22.1222 29.3528 21.9829 29.4764C21.4978 29.9106 21.0038 30.3437 20.5009 30.7754C20.3675 30.8904 20.1971 30.9537 20.0209 30.9537C19.8448 30.9537 19.6744 30.8904 19.5409 30.7754C19.0396 30.3447 18.5425 29.9091 18.0495 29.4687C17.9102 29.3452 17.7441 29.2557 17.5642 29.2074C17.3844 29.1592 17.1958 29.1534 17.0133 29.1906C16.3657 29.3265 15.7098 29.4567 15.0457 29.5811C14.8727 29.6138 14.6938 29.5833 14.5414 29.4952C14.389 29.4071 14.2733 29.2673 14.2152 29.1011C13.9943 28.4726 13.7816 27.8472 13.5771 27.2249C13.5182 27.0484 13.419 26.8881 13.2875 26.7565C13.1559 26.6249 12.9955 26.5258 12.819 26.4668C12.1892 26.2599 11.5562 26.044 10.92 25.8192C10.7538 25.7612 10.614 25.6454 10.5259 25.493C10.4378 25.3406 10.4073 25.1617 10.44 24.9887C10.5644 24.3221 10.6952 23.663 10.8324 23.0116C10.8696 22.8291 10.8638 22.6405 10.8156 22.4607C10.7673 22.2808 10.6779 22.1147 10.5543 21.9754C10.1098 21.4802 9.6673 20.9748 9.22666 20.4592C9.11163 20.3258 9.04836 20.1554 9.04836 19.9792C9.04836 19.803 9.11163 19.6327 9.22666 19.4992C9.66476 18.9887 10.1048 18.4859 10.5467 17.9906C10.6702 17.8513 10.7597 17.6852 10.808 17.5054C10.8562 17.3255 10.862 17.1369 10.8248 16.9545C10.6914 16.3145 10.5632 15.6668 10.44 15.0116C10.4068 14.8383 10.4371 14.659 10.5252 14.5062C10.6133 14.3533 10.7534 14.2373 10.92 14.1792C11.5562 13.957 12.1886 13.7418 12.8171 13.5335C12.994 13.4748 13.1547 13.3758 13.2866 13.2442C13.4185 13.1126 13.518 12.9521 13.5771 12.7754C13.7803 12.1545 13.993 11.5291 14.2152 10.8992C14.2733 10.733 14.389 10.5932 14.5414 10.5051C14.6938 10.4171 14.8727 10.3866 15.0457 10.4192C15.6959 10.5411 16.3409 10.6687 16.9809 10.8021C17.1631 10.839 17.3513 10.8331 17.5308 10.7848C17.7103 10.7366 17.8761 10.6473 18.0152 10.524C18.5016 10.0897 18.9949 9.65668 19.499 9.22493ZM24.7714 17.2478C25.0394 16.9901 25.1964 16.638 25.209 16.2664C25.2215 15.8948 25.0887 15.5329 24.8388 15.2577C24.5888 14.9824 24.2414 14.8155 23.8703 14.7923C23.4992 14.7691 23.1337 14.8915 22.8514 15.1335C21.5676 16.2973 20.5848 17.3621 19.7505 18.6611C19.2395 19.471 18.7974 20.3222 18.4286 21.2059L17.2171 19.9583C16.9504 19.7004 16.5939 19.5564 16.2229 19.5567C15.8519 19.557 15.4956 19.7016 15.2293 19.96C14.963 20.2183 14.8077 20.5701 14.7962 20.9409C14.7847 21.3117 14.9179 21.6725 15.1676 21.9468L17.9371 24.804C18.1068 24.9791 18.3184 25.1079 18.5519 25.1782C18.7853 25.2484 19.0329 25.2577 19.271 25.2052C19.5091 25.1527 19.7298 25.0401 19.9121 24.8782C20.0943 24.7163 20.2322 24.5104 20.3124 24.2802C20.9467 22.4573 21.5009 21.2268 22.1562 20.204C22.8076 19.1868 23.5962 18.3145 24.7714 17.2497" fill="#7F0039"/>
</g>
<defs>
<clipPath id="clip0_11011_150">
<rect width="26.6667" height="26.6667" fill="white" transform="translate(6.66666 6.66675)"/>
</clipPath>
</defs>
</svg>
