<svg width="40" height="40" viewBox="0 0 40 40" fill="none" xmlns="http://www.w3.org/2000/svg">
<rect width="40" height="40" rx="5.33333" fill="#F3E7EC"/>
<path d="M21.1111 15.5556V11.1111C21.1111 10.7963 21.2178 10.5326 21.4311 10.32C21.6444 10.1074 21.9081 10.0007 22.2222 10H28.8889C29.2037 10 29.4678 10.1067 29.6811 10.32C29.8944 10.5333 30.0007 10.797 30 11.1111V15.5556C30 15.8704 29.8933 16.1344 29.68 16.3478C29.4667 16.5611 29.203 16.6674 28.8889 16.6667H22.2222C21.9074 16.6667 21.6437 16.56 21.4311 16.3467C21.2185 16.1333 21.1119 15.8696 21.1111 15.5556ZM10 20V11.1111C10 10.7963 10.1067 10.5326 10.32 10.32C10.5333 10.1074 10.797 10.0007 11.1111 10H17.7778C18.0926 10 18.3567 10.1067 18.57 10.32C18.7833 10.5333 18.8896 10.797 18.8889 11.1111V20C18.8889 20.3148 18.7822 20.5789 18.5689 20.7922C18.3556 21.0056 18.0919 21.1119 17.7778 21.1111H11.1111C10.7963 21.1111 10.5326 21.0044 10.32 20.7911C10.1074 20.5778 10.0007 20.3141 10 20ZM21.1111 28.8889V20C21.1111 19.6852 21.2178 19.4215 21.4311 19.2089C21.6444 18.9963 21.9081 18.8896 22.2222 18.8889H28.8889C29.2037 18.8889 29.4678 18.9956 29.6811 19.2089C29.8944 19.4222 30.0007 19.6859 30 20V28.8889C30 29.2037 29.8933 29.4678 29.68 29.6811C29.4667 29.8944 29.203 30.0007 28.8889 30H22.2222C21.9074 30 21.6437 29.8933 21.4311 29.68C21.2185 29.4667 21.1119 29.203 21.1111 28.8889ZM10 28.8889V24.4444C10 24.1296 10.1067 23.8659 10.32 23.6533C10.5333 23.4407 10.797 23.3341 11.1111 23.3333H17.7778C18.0926 23.3333 18.3567 23.44 18.57 23.6533C18.7833 23.8667 18.8896 24.1304 18.8889 24.4444V28.8889C18.8889 29.2037 18.7822 29.4678 18.5689 29.6811C18.3556 29.8944 18.0919 30.0007 17.7778 30H11.1111C10.7963 30 10.5326 29.8933 10.32 29.68C10.1074 29.4667 10.0007 29.203 10 28.8889ZM12.2222 18.8889H16.6667V12.2222H12.2222V18.8889ZM23.3333 27.7778H27.7778V21.1111H23.3333V27.7778ZM23.3333 14.4444H27.7778V12.2222H23.3333V14.4444ZM12.2222 27.7778H16.6667V25.5556H12.2222V27.7778Z" fill="#7F0039"/>
</svg>
