<svg width="60" height="60" viewBox="0 0 60 60" fill="none" xmlns="http://www.w3.org/2000/svg">
<rect width="60" height="60" rx="8" fill="#7F0039"/>
<path d="M45 23.3334C44.9994 22.7488 44.8451 22.1747 44.5526 21.6686C44.26 21.1626 43.8396 20.7423 43.3333 20.45L31.6667 13.7834C31.1599 13.4908 30.5851 13.3368 30 13.3368C29.4149 13.3368 28.8401 13.4908 28.3333 13.7834L16.6667 20.45C16.1604 20.7423 15.74 21.1626 15.4474 21.6686C15.1549 22.1747 15.0006 22.7488 15 23.3334V36.6667C15.0006 37.2513 15.1549 37.8254 15.4474 38.3314C15.74 38.8375 16.1604 39.2578 16.6667 39.55L28.3333 46.2167C28.8401 46.5093 29.4149 46.6633 30 46.6633C30.5851 46.6633 31.1599 46.5093 31.6667 46.2167L43.3333 39.55C43.8396 39.2578 44.26 38.8375 44.5526 38.3314C44.8451 37.8254 44.9994 37.2513 45 36.6667V23.3334Z" stroke="#EFC800" stroke-width="4" stroke-linecap="round" stroke-linejoin="round"/>
<path d="M15.5 21.6667L30 30.0001M30 30.0001L44.5 21.6667M30 30.0001V46.6667" stroke="#EFC800" stroke-width="4" stroke-linecap="round" stroke-linejoin="round"/>
</svg>
