<svg width="60" height="60" viewBox="0 0 60 60" fill="none" xmlns="http://www.w3.org/2000/svg">
<rect width="60" height="60" rx="8" fill="#7F0039"/>
<path fill-rule="evenodd" clip-rule="evenodd" d="M40 26H33.89L37.838 16.788C37.9684 16.4838 38.0212 16.152 37.9919 15.8224C37.9625 15.4927 37.8517 15.1755 37.6695 14.8992C37.4874 14.6229 37.2395 14.3961 36.9481 14.2391C36.6567 14.0822 36.3309 14 36 14H26C25.6083 13.9997 25.2251 14.1143 24.898 14.3298C24.5709 14.5452 24.3143 14.852 24.16 15.212L18.16 29.212C18.0295 29.5163 17.9767 29.8483 18.0061 30.1781C18.0356 30.508 18.1466 30.8253 18.329 31.1017C18.5114 31.378 18.7595 31.6048 19.0512 31.7616C19.3428 31.9184 19.6688 32.0003 20 32H23.468L18.144 45.254C17.344 47.244 19.814 48.926 21.372 47.454L31.42 37.97L41.3 29.52C42.712 28.312 41.86 26 40 26ZM29.02 27.212C28.8896 27.516 28.8368 27.8476 28.8661 28.1771C28.8954 28.5066 29.0059 28.8237 29.1879 29.1C29.3698 29.3763 29.6174 29.6031 29.9085 29.7602C30.1997 29.9172 30.5252 29.9996 30.856 30H34.584L28.744 34.996L25.248 38.296L28.282 30.746C28.4039 30.4426 28.4497 30.1139 28.4151 29.7888C28.3806 29.4636 28.2669 29.1519 28.0839 28.8809C27.9009 28.6099 27.6543 28.3879 27.3656 28.2343C27.0769 28.0807 26.755 28.0003 26.428 28H23.034L27.318 18H32.966L29.02 27.212Z" fill="#EFC800"/>
</svg>
