<svg width="40" height="40" viewBox="0 0 40 40" fill="none" xmlns="http://www.w3.org/2000/svg">
<rect width="40" height="40" rx="5.33333" fill="#7F0039"/>
<path d="M11.1111 28.8889C10.5 28.8889 9.97703 28.6715 9.54222 28.2366C9.1074 27.8018 8.88963 27.2785 8.88889 26.6666V13.3333C8.88889 12.7222 9.10666 12.1992 9.54222 11.7644C9.97777 11.3296 10.5007 11.1118 11.1111 11.1111H28.8889C29.5 11.1111 30.0233 11.3289 30.4589 11.7644C30.8944 12.2 31.1118 12.7229 31.1111 13.3333V26.6666C31.1111 27.2778 30.8937 27.8011 30.4589 28.2366C30.0241 28.6722 29.5007 28.8896 28.8889 28.8889H11.1111ZM28.8889 15.5555L20.5833 20.75C20.4907 20.8055 20.3937 20.8474 20.2922 20.8755C20.1907 20.9037 20.0933 20.9174 20 20.9166C19.9067 20.9159 19.8096 20.9022 19.7089 20.8755C19.6081 20.8489 19.5107 20.807 19.4167 20.75L11.1111 15.5555V26.6666H28.8889V15.5555ZM20 18.8889L28.8889 13.3333H11.1111L20 18.8889ZM11.1111 15.8333V14.1944V14.2222V14.2089V15.8333Z" fill="#EFC800"/>
</svg>
