<svg width="146" height="32" viewBox="0 0 146 32" fill="none" xmlns="http://www.w3.org/2000/svg">
<g clip-path="url(#clip0_11012_309)">
<path d="M89.4835 7.98957C88.1978 9.90099 86.7856 12.2895 85.2337 15.349C83.6689 18.4286 82.2576 21.5845 81.3828 23.985H86.6028C86.9222 22.9846 87.3109 21.9722 87.7227 21.022H96.2995C96.7143 21.9682 97.0819 22.9214 97.4224 23.985H102.643C101.714 21.5794 100.363 18.4446 98.8025 15.3681C97.2467 12.3046 95.8525 9.90501 94.5418 7.98957H89.4835ZM92.0076 11.7692C93.0843 13.6977 94.0506 15.6533 95.1263 18.061H88.8969C89.9465 15.7006 90.9138 13.7459 92.0076 11.7692ZM52.0636 7.98957C51.8085 10.4434 51.6779 13.3653 51.6779 15.9858C51.6779 18.5863 51.8075 21.2028 52.0666 23.985H57.0144C56.8015 21.9149 56.697 20.1411 56.6267 18.0469H61.6056C61.9682 18.4477 62.5628 19.21 63.1876 20.1974C63.9148 21.3404 64.4763 22.4663 65.101 23.985H70.6324C69.9062 22.5999 69.1197 21.3494 67.9375 19.6821C67.2616 18.7309 66.6227 17.9575 66.0372 17.3779C68.1123 16.6487 69.396 14.897 69.396 12.7676C69.396 11.5502 68.959 10.3982 68.1997 9.60266C67.1199 8.48675 65.4435 7.98957 62.7597 7.98957H52.0636ZM56.7753 10.9858H61.1275C62.7296 10.9858 63.509 11.1816 64.0072 11.712C64.3035 12.0093 64.4803 12.4844 64.4803 12.9846C64.4803 13.8474 64.0353 14.6107 63.2549 15.0888H56.6237C56.6267 13.9066 56.6769 12.5597 56.7753 10.9858ZM32.2875 7.98957C32.0514 10.5247 31.8987 13.3934 31.8987 15.9959C31.8987 18.5863 32.0715 21.4308 32.2885 23.9871H47.5527C47.4734 22.9204 47.4111 21.9471 47.3548 20.797H36.9641C36.8837 19.5987 36.8465 18.4949 36.8445 17.4181H46.4298V14.4008H36.8445C36.8445 13.5239 36.8747 12.2423 36.9631 11.1786H47.3418C47.393 10.0567 47.4553 9.11452 47.5567 7.98957H32.2875ZM10.5025 7.98957C10.2483 10.3791 10.1148 13.3904 10.1148 15.9858C10.1148 18.5863 10.2333 21.1315 10.5025 23.985H19.935C23.2727 23.985 25.3278 23.5983 26.6034 22.7265C27.5867 22.0515 28.1954 20.7106 28.1954 19.2251C28.1954 17.4774 27.197 16.0812 25.4453 15.3671C26.6104 14.7122 27.3517 13.4516 27.3517 12.0886C27.3517 10.8261 26.9871 9.9512 26.1685 9.25613C24.7934 8.08598 22.2723 7.98957 19.5915 7.98957H10.5025ZM15.2112 11.0159H19.3966C21.0881 11.0159 21.6516 11.1445 22.1357 11.6316C22.3838 11.8827 22.5315 12.3237 22.5315 12.8138C22.5315 13.4908 22.2593 14.0734 21.7621 14.4571H15.0636C15.0796 13.2608 15.1278 12.1479 15.2112 11.0159ZM15.0595 17.3548H21.0841C21.9559 17.3548 22.3999 17.4733 22.7906 17.8058C23.1562 18.1182 23.326 18.5049 23.326 19.0292C23.326 19.5796 23.1663 20.0085 22.8388 20.334C22.3697 20.7739 21.7088 20.9617 20.5548 20.9617H15.2112C15.1057 19.6891 15.0646 18.4065 15.0595 17.3548ZM74.2584 7.99058C74.0053 10.2797 73.8616 13.2969 73.8677 16.1234C73.8737 18.8323 73.9812 21.4378 74.2584 23.985H78.5172C78.8054 21.4509 78.8998 18.8384 78.9069 16.1224C78.9149 13.302 78.7532 10.2586 78.5212 7.99058H74.2584ZM0.389901 7.99058C0.136786 10.2797 -0.005843 13.2969 0.000183558 16.1234C0.00621011 18.8323 0.11268 21.4378 0.389901 23.985H4.65168C4.93794 21.4509 5.03235 18.8384 5.04039 16.1224C5.04742 13.302 4.88672 10.2586 4.65369 7.99058H0.389901Z" fill="white"/>
<path d="M110.17 24.4086L102.65 31.999C128.754 31.999 134.908 25.863 138.498 17.5091L141.514 9.64552C132.719 9.89863 119.448 15.0825 110.17 24.4086Z" fill="white"/>
<path d="M127.704 6.65434L119.243 15.2251C127.276 9.45467 135.287 5.97331 143.268 5.07435L145.214 2.28882e-05C133.399 2.28882e-05 131.79 2.58341 127.704 6.65434Z" fill="white"/>
</g>
<defs>
<clipPath id="clip0_11012_309">
<rect width="145.214" height="32" fill="white"/>
</clipPath>
</defs>
</svg>
