<svg width="40" height="40" viewBox="0 0 40 40" fill="none" xmlns="http://www.w3.org/2000/svg">
<rect width="40" height="40" rx="5.33333" fill="#7F0039"/>
<path d="M15.3333 8.88867H24.6667C28.2222 8.88867 31.1111 11.7776 31.1111 15.3331V24.6664C31.1111 26.3756 30.4321 28.0148 29.2236 29.2234C28.015 30.4319 26.3758 31.1109 24.6667 31.1109H15.3333C11.7778 31.1109 8.88889 28.222 8.88889 24.6664V15.3331C8.88889 13.6239 9.56785 11.9848 10.7764 10.7762C11.985 9.56764 13.6242 8.88867 15.3333 8.88867ZM15.1111 11.1109C14.0502 11.1109 13.0328 11.5323 12.2827 12.2825C11.5325 13.0326 11.1111 14.05 11.1111 15.1109V24.8887C11.1111 27.0998 12.9 28.8887 15.1111 28.8887H24.8889C25.9498 28.8887 26.9672 28.4672 27.7173 27.7171C28.4675 26.967 28.8889 25.9495 28.8889 24.8887V15.1109C28.8889 12.8998 27.1 11.1109 24.8889 11.1109H15.1111ZM25.8333 12.7776C26.2017 12.7776 26.555 12.9239 26.8154 13.1844C27.0759 13.4448 27.2222 13.7981 27.2222 14.1664C27.2222 14.5348 27.0759 14.8881 26.8154 15.1485C26.555 15.409 26.2017 15.5553 25.8333 15.5553C25.465 15.5553 25.1117 15.409 24.8512 15.1485C24.5908 14.8881 24.4444 14.5348 24.4444 14.1664C24.4444 13.7981 24.5908 13.4448 24.8512 13.1844C25.1117 12.9239 25.465 12.7776 25.8333 12.7776ZM20 14.4442C21.4734 14.4442 22.8865 15.0295 23.9284 16.0714C24.9702 17.1133 25.5556 18.5264 25.5556 19.9998C25.5556 21.4732 24.9702 22.8863 23.9284 23.9282C22.8865 24.97 21.4734 25.5553 20 25.5553C18.5266 25.5553 17.1135 24.97 16.0716 23.9282C15.0298 22.8863 14.4444 21.4732 14.4444 19.9998C14.4444 18.5264 15.0298 17.1133 16.0716 16.0714C17.1135 15.0295 18.5266 14.4442 20 14.4442ZM20 16.6664C19.1159 16.6664 18.2681 17.0176 17.643 17.6428C17.0179 18.2679 16.6667 19.1157 16.6667 19.9998C16.6667 20.8838 17.0179 21.7317 17.643 22.3568C18.2681 22.9819 19.1159 23.3331 20 23.3331C20.8841 23.3331 21.7319 22.9819 22.357 22.3568C22.9821 21.7317 23.3333 20.8838 23.3333 19.9998C23.3333 19.1157 22.9821 18.2679 22.357 17.6428C21.7319 17.0176 20.8841 16.6664 20 16.6664Z" fill="#EFC800"/>
</svg>
