<svg width="40" height="40" viewBox="0 0 40 40" fill="none" xmlns="http://www.w3.org/2000/svg">
<rect width="40" height="40" rx="5.33333" fill="#7F0039"/>
<path d="M27.7778 10C28.3671 10 28.9324 10.2341 29.3491 10.6509C29.7659 11.0676 30 11.6329 30 12.2222V27.7778C30 28.3671 29.7659 28.9324 29.3491 29.3491C28.9324 29.7659 28.3671 30 27.7778 30H12.2222C11.6329 30 11.0676 29.7659 10.6509 29.3491C10.2341 28.9324 10 28.3671 10 27.7778V12.2222C10 11.6329 10.2341 11.0676 10.6509 10.6509C11.0676 10.2341 11.6329 10 12.2222 10H27.7778ZM27.2222 27.2222V21.3333C27.2222 20.3727 26.8406 19.4513 26.1613 18.772C25.482 18.0927 24.5607 17.7111 23.6 17.7111C22.6556 17.7111 21.5556 18.2889 21.0222 19.1556V17.9222H17.9222V27.2222H21.0222V21.7444C21.0222 20.8889 21.7111 20.1889 22.5667 20.1889C22.9792 20.1889 23.3749 20.3528 23.6666 20.6445C23.9583 20.9362 24.1222 21.3319 24.1222 21.7444V27.2222H27.2222ZM14.3111 16.1778C14.8062 16.1778 15.281 15.9811 15.631 15.631C15.9811 15.281 16.1778 14.8062 16.1778 14.3111C16.1778 13.2778 15.3444 12.4333 14.3111 12.4333C13.8131 12.4333 13.3355 12.6312 12.9833 12.9833C12.6312 13.3355 12.4333 13.8131 12.4333 14.3111C12.4333 15.3444 13.2778 16.1778 14.3111 16.1778ZM15.8556 27.2222V17.9222H12.7778V27.2222H15.8556Z" fill="#EFC800"/>
</svg>
