<svg width="64" height="23" viewBox="0 0 64 23" fill="none" xmlns="http://www.w3.org/2000/svg">
<g clip-path="url(#clip0_11012_364)">
<path d="M16.9856 16.0824C16.8296 16.6168 16.4508 17.4643 15.793 18.9384L15.0364 20.6193C15.1271 20.6063 15.2193 20.5807 15.3296 20.5807C15.434 20.5807 15.5585 20.6063 15.6427 20.6193C15.7464 20.248 15.9553 19.7065 16.1635 19.2054C16.4245 19.1917 16.6859 19.1792 16.9463 19.1792C17.2269 19.1792 17.5008 19.1917 17.782 19.2054L18.0546 19.8964L18.3291 20.6193C18.4465 20.6128 18.6291 20.5807 18.8112 20.5807C18.9939 20.5807 19.2223 20.6128 19.3201 20.6193C19.0265 19.987 18.5957 19.0021 18.3484 18.4351C18.1135 17.8882 17.7223 16.9757 17.4097 16.0824C17.3379 16.102 17.2725 16.1155 17.2014 16.1155C17.1231 16.1155 17.0573 16.102 16.9856 16.0824ZM33.1355 16.0824C32.9796 16.6168 32.6008 17.4643 31.9423 18.9384L31.1864 20.6193C31.2784 20.6063 31.3686 20.5807 31.4795 20.5807C31.584 20.5807 31.7078 20.6063 31.7933 20.6193C31.897 20.248 32.1066 19.7065 32.3147 19.2054C32.5751 19.1917 32.8359 19.1792 33.0962 19.1792C33.3768 19.1792 33.6502 19.1917 33.9308 19.2054L34.2046 19.8964L34.4784 20.6193C34.5965 20.6128 34.7791 20.5807 34.9611 20.5807C35.1439 20.5807 35.3723 20.6128 35.4695 20.6193C35.1765 19.987 34.7457 19.0021 34.4977 18.4351C34.2628 17.8882 33.8722 16.9757 33.5597 16.0824C33.4879 16.102 33.4225 16.1155 33.3507 16.1155C33.2731 16.1155 33.2073 16.102 33.1355 16.0824ZM40.6164 16.0955C39.436 16.0955 39.097 16.8255 39.097 17.3984C39.097 17.94 39.2868 18.273 39.9185 18.553C40.1005 18.6313 40.4082 18.7478 40.5902 18.8268C40.7142 18.8783 41.1254 19.0603 41.1254 19.5758C41.1254 20.0457 40.7851 20.3917 40.2709 20.3917C39.8859 20.3917 39.56 20.2938 39.2604 19.642H39.1688C39.1368 19.9545 39.13 20.0393 39.0191 20.378C39.254 20.4954 39.6779 20.711 40.2378 20.711C41.4313 20.711 41.8938 19.9489 41.8938 19.2833C41.8938 19.1006 41.8485 18.7156 41.5751 18.4226C41.3858 18.2138 41.1899 18.1425 40.6881 17.9467C40.1152 17.7248 39.7819 17.5941 39.7819 17.1184C39.7819 16.7341 40.0361 16.4142 40.5509 16.4142C40.9614 16.4142 41.3082 16.6105 41.4054 16.9818H41.4965C41.5552 16.7345 41.5681 16.6822 41.6986 16.3624C41.3788 16.2195 41.0921 16.0955 40.6164 16.0955ZM19.826 16.1473C19.8912 16.7789 19.8915 17.2424 19.8915 17.6535C19.8915 18.7681 19.8915 19.8441 19.8197 20.6193C19.964 20.6135 20.1459 20.5807 20.2888 20.5807C20.4389 20.5807 20.5953 20.6135 20.7453 20.6193C20.6931 20.0914 20.6805 19.3873 20.6805 18.4164C20.6805 17.7573 20.6804 16.6301 20.7522 16.1473C20.5956 16.1668 20.433 16.1872 20.2888 16.1872C20.1915 16.1872 19.9493 16.161 19.826 16.1473ZM21.8524 16.1473C21.8975 16.9884 21.8973 17.0794 21.8973 17.9336C21.8973 19.191 21.8909 19.3351 21.8393 20.6193C21.9829 20.6004 22.1396 20.5807 22.2884 20.5807C22.4522 20.5807 22.5951 20.6063 22.7256 20.6193C22.7256 20.4503 22.6995 19.6091 22.6995 19.4199V18.4943H22.856C23.2084 18.9896 23.6116 19.5631 23.9444 20.0786C24.0423 20.228 24.1858 20.4699 24.2837 20.6193C24.4795 20.5932 24.5581 20.5807 24.8126 20.5807C25.0469 20.5807 25.21 20.6004 25.3921 20.6193C24.9816 20.1051 24.8048 19.8766 24.2906 19.153C24.1927 19.0159 24.0491 18.8003 23.9513 18.664L23.7685 18.4033C24.3623 18.2923 24.9031 17.92 24.9031 17.197C24.9031 16.9229 24.7988 16.6558 24.6037 16.4666C24.3237 16.1997 24.0036 16.1473 23.5801 16.1473C23.4301 16.1473 22.6732 16.1797 22.5042 16.1797C22.1714 16.1797 22.0019 16.161 21.8524 16.1473ZM25.2673 16.1473C25.5348 16.8513 25.7622 17.4763 25.939 17.9723C26.2392 18.8199 26.4345 19.4076 26.6694 20.1235L26.8316 20.6193C26.9229 20.6004 27.0267 20.5807 27.0992 20.5807C27.1709 20.5807 27.2365 20.5932 27.3468 20.6193C27.4512 20.2807 27.5754 19.8633 27.6674 19.5958C27.9206 18.8526 27.9533 18.7485 28.2861 17.8232L28.4813 17.2824C28.5531 17.4906 28.6772 17.8234 28.7483 18.0315C28.8201 18.2338 29.1527 19.2311 29.231 19.453C29.3354 19.746 29.3613 19.8304 29.6028 20.6193C29.6615 20.6128 29.7843 20.5807 29.8828 20.5807C29.9742 20.5807 30.0457 20.6004 30.1435 20.6193C30.3915 19.8441 30.4175 19.766 30.7822 18.7226C31.1411 17.7053 31.3625 17.1254 31.7534 16.1473C31.6555 16.1734 31.5587 16.1866 31.4602 16.1866C31.3362 16.1866 31.2326 16.1668 31.1608 16.1473C30.9259 16.9949 30.8093 17.4062 30.6201 17.966C30.3134 18.8783 30.2741 18.9826 30.0855 19.4785C29.8767 18.918 29.6741 18.3506 29.4849 17.7777C29.3811 17.4644 28.9824 16.161 28.9766 16.1473C28.8859 16.1668 28.8202 16.1866 28.6897 16.1866C28.5735 16.1866 28.4875 16.161 28.4034 16.1473C28.2076 16.9427 27.5162 18.8595 27.4509 19.0357L27.2882 19.4592L27.164 19.0943C26.8586 18.188 26.4345 16.9166 26.2322 16.1473C26.0691 16.1734 25.9263 16.1866 25.7763 16.1866C25.6197 16.1866 25.3978 16.161 25.2673 16.1473ZM34.8033 16.1473C35.142 16.7143 35.6962 17.6139 36.0283 18.1874L36.4132 18.853C36.4132 19.2575 36.3934 20.111 36.3745 20.6193C36.4978 20.6063 36.6806 20.5807 36.8105 20.5807C36.9606 20.5807 37.1113 20.6063 37.2614 20.6193C37.2347 20.0131 37.2146 19.6612 37.2146 19.113V18.8723C37.2146 18.8142 37.2538 18.7423 37.2995 18.6633C37.5735 18.1942 37.8279 17.7048 38.1215 17.2357C38.2188 17.079 38.6947 16.3234 38.7933 16.1473C38.7208 16.1734 38.6493 16.1872 38.5195 16.1872C38.3753 16.1872 38.2446 16.1668 38.1402 16.1473C37.6711 17.1776 37.5665 17.3988 37.0132 18.3509C36.4592 17.3799 36.2111 16.8651 35.8718 16.1473C35.6832 16.1799 35.4938 16.1872 35.3379 16.1872C35.1943 16.1872 35.0441 16.1734 34.8033 16.1473ZM23.1629 16.4666C23.3776 16.4666 23.5936 16.4995 23.7685 16.63C23.9969 16.799 24.0423 17.0339 24.0423 17.308C24.0423 17.7308 23.8017 18.208 23.1498 18.208C22.9801 18.208 22.8234 18.194 22.6995 18.1874V16.4997C22.7973 16.4925 23.0389 16.4666 23.1629 16.4666ZM16.9793 17.197L17.5918 18.8006C17.3902 18.8143 17.1947 18.8268 16.9924 18.8268C16.764 18.8268 16.5428 18.8071 16.3144 18.8006L16.9793 17.197ZM33.1287 17.197L33.7424 18.8006C33.5401 18.8143 33.3447 18.8268 33.1418 18.8268C32.914 18.8268 32.6921 18.8071 32.4644 18.8006L33.1287 17.197Z" fill="white"/>
<path d="M22.168 0.298584C21.6982 1.90316 20.5644 4.44575 18.5891 8.86537L16.3194 13.9113C16.5935 13.8728 16.8674 13.794 17.1995 13.794C17.5121 13.794 17.885 13.8728 18.1388 13.9113C18.4514 12.7961 19.0786 11.1729 19.7037 9.66684C20.4855 9.62834 21.2678 9.58951 22.0502 9.58951C22.8913 9.58951 23.7126 9.62834 24.5544 9.66684L25.3746 11.7407L26.1966 13.9113C26.5484 13.8917 27.0969 13.794 27.6437 13.794C28.1925 13.794 28.8756 13.8917 29.1699 13.9113C28.2896 12.0143 26.9985 9.06089 26.2547 7.35908C25.5506 5.71665 24.3775 2.97789 23.4392 0.298584C23.2239 0.357965 23.0283 0.397131 22.8136 0.397131C22.5787 0.397131 22.3827 0.357965 22.168 0.298584ZM43.9421 0.298584C43.4736 1.90316 42.3384 4.44575 40.3626 8.86537L38.0947 13.9113C38.3681 13.8728 38.6426 13.794 38.9748 13.794C39.2873 13.794 39.659 13.8728 39.9141 13.9113C40.2273 12.7961 40.852 11.1729 41.4778 9.66684C42.2595 9.62834 43.0424 9.58951 43.8254 9.58951C44.6666 9.58951 45.488 9.62834 46.3284 9.66684L47.1499 11.7407L47.9713 13.9113C48.323 13.8917 48.8715 13.794 49.419 13.794C49.9664 13.794 50.6509 13.8917 50.9446 13.9113C50.0643 12.0143 48.7732 9.06089 48.0299 7.35908C47.3259 5.71665 46.1522 2.97789 45.2138 0.298584C44.9985 0.357965 44.8029 0.397131 44.5883 0.397131C44.3533 0.397131 44.1574 0.357965 43.9421 0.298584ZM7.62604 0.3385C3.67625 0.3385 0.27301 2.52856 0.27301 7.4963C0.27301 8.55145 0.507976 10.5471 2.15041 12.2097C3.85221 13.9311 5.86622 14.1851 7.56803 14.1851C7.78271 14.1851 7.99759 14.1853 8.21358 14.1664L12.6919 17.6673C13.2785 17.2562 14.1981 16.7478 14.863 16.4542L10.4434 13.7154C13.1612 12.7575 14.863 10.3317 14.863 7.02664C14.863 2.33362 11.2835 0.3385 7.62604 0.3385ZM28.3616 0.495052C28.421 0.729965 28.4595 0.983655 28.4595 1.21857C28.4595 1.45348 28.421 1.7072 28.3616 1.94146C29.36 1.84423 31.2373 1.80486 31.4128 1.80486H32.3914C32.411 2.56833 32.4301 3.25237 32.4301 3.97603L32.4501 9.43232C32.4501 10.9194 32.3332 12.4254 32.2542 13.9113C32.9583 13.8336 33.2518 13.794 33.584 13.794C33.8189 13.794 34.4446 13.8532 35.0123 13.9113C34.9529 13.3644 34.8751 12.7182 34.8751 11.2324V3.99599C34.8751 3.25275 34.8942 2.5096 34.9137 1.80486C36.2632 1.80486 37.6527 1.82465 38.8064 1.94146C38.7477 1.62889 38.7085 1.45324 38.7085 1.2379C38.7085 1.08129 38.7477 0.826541 38.8064 0.495052C36.929 0.592279 35.2075 0.611689 33.584 0.611689C32.0779 0.611689 29.9068 0.592282 28.3616 0.495052ZM53.0708 0.495052C53.2072 3.01775 53.2074 3.29096 53.2074 5.8528C53.2074 9.62836 53.1875 10.058 53.0315 13.9113C53.4616 13.8532 53.931 13.794 54.3806 13.794C54.8694 13.794 55.3002 13.8728 55.6911 13.9113C55.6911 13.4023 55.6131 10.8801 55.6131 10.3124V7.53497H56.0828C57.1386 9.02144 58.3521 10.7431 59.3492 12.2883C59.6422 12.7386 60.0722 13.4623 60.3652 13.9113C60.9525 13.8336 61.1873 13.794 61.9495 13.794C62.6536 13.794 63.1428 13.8532 63.6903 13.9113C62.4583 12.3667 61.931 11.6819 60.3852 9.51091C60.0916 9.09982 59.6615 8.45437 59.3679 8.04392L58.8209 7.26241C60.6004 6.92961 62.2239 5.81522 62.2239 3.64359C62.2239 2.82205 61.9105 2.02011 61.3233 1.45371C60.4828 0.651745 59.5245 0.495052 58.2533 0.495052C57.8031 0.495052 55.5352 0.592353 55.0262 0.592353C54.0285 0.592353 53.5198 0.533553 53.0708 0.495052ZM7.58799 1.3352C10.7952 1.3352 12.1836 3.9955 12.1836 6.83142C12.1836 8.45427 11.9876 9.9804 11.1856 11.213C10.3836 12.4444 9.05467 13.1877 7.6067 13.1877C3.98905 13.1877 2.95188 9.745 2.95188 7.5936C2.95188 2.66566 5.59254 1.3352 7.58799 1.3352ZM57.0015 1.45371C57.6469 1.45371 58.2917 1.55059 58.8209 1.94146C59.5048 2.45043 59.6417 3.15383 59.6417 3.97603C59.6417 5.24716 58.9185 6.67549 56.9628 6.67549C56.4539 6.67549 55.9844 6.63513 55.6131 6.61686V1.55101C55.9061 1.53209 56.6296 1.45371 57.0015 1.45371ZM22.1487 3.64359L23.9868 8.45496C23.38 8.49476 22.7936 8.53355 22.1861 8.53355C21.5023 8.53355 20.8373 8.47453 20.1534 8.45496L22.1487 3.64359ZM43.9227 3.64359L45.7615 8.45496C45.1553 8.49476 44.5682 8.53355 43.962 8.53355C43.2769 8.53355 42.6126 8.47453 41.9275 8.45496L43.9227 3.64359ZM58.9357 16.1473C58.6453 16.1473 58.5664 16.2748 58.5664 16.5084C58.5664 16.742 58.6701 16.8234 58.9357 16.8234C59.2039 16.8234 59.3922 16.7205 59.3922 16.5084C59.3922 16.2977 59.2678 16.1473 58.9357 16.1473ZM59.9685 16.1473C59.6762 16.1473 59.5987 16.2748 59.5987 16.5084C59.5987 16.742 59.6984 16.8234 59.9685 16.8234C60.2348 16.8234 60.422 16.7205 60.422 16.5084C60.422 16.2977 60.2974 16.1473 59.9685 16.1473ZM43.7487 16.2084C43.4557 16.2084 43.3776 16.3366 43.3776 16.5695C43.3776 16.8045 43.4792 16.8864 43.7487 16.8864C44.015 16.8864 44.2028 16.7816 44.2028 16.5695C44.2028 16.3568 44.0783 16.2084 43.7487 16.2084ZM44.7436 16.2084C44.4493 16.2084 44.3718 16.3366 44.3718 16.5695C44.3718 16.8045 44.4734 16.8864 44.7436 16.8864C45.0124 16.8864 45.1939 16.7816 45.1939 16.5695C45.1939 16.3568 45.0711 16.2084 44.7436 16.2084ZM52.1371 16.234C52.1371 16.234 51.6846 16.5515 51.3525 16.8041C51.021 17.0566 51.3525 17.2263 51.3525 17.2263V19.9152H50.4038L50.3839 17.6074C50.3839 17.6074 49.7236 18.0899 49.5343 18.2367C49.3497 18.3829 49.4522 18.5131 49.6591 18.5131C49.6591 18.5131 49.621 20.2168 49.621 20.6187C49.621 21.0233 49.286 21.4856 48.5832 21.2755C48.5832 21.2755 48.3604 21.3186 48.5457 21.4869C48.7304 21.6546 48.9532 21.7826 49.2031 21.7826C49.4518 21.7826 50.3626 21.6106 50.3626 20.6187H62.3025V16.3176C62.3025 16.3176 61.5997 16.7817 61.4549 16.9076C61.3093 17.0335 61.3518 17.1849 61.5391 17.1627V19.9152H60.5087V17.4159C60.5087 17.4159 60.2975 17.4964 60.0085 17.6243C59.722 17.7541 58.6862 18.1754 58.6862 18.7445V19.4018H59.7415V19.9152H57.2373C57.2392 19.7945 57.2416 19.6167 57.2416 19.3563C57.2416 18.5361 56.5431 18.0895 55.9212 18.0895H53.0259C52.5189 18.0895 52.2742 18.2125 52.1371 18.3528L52.1371 16.234ZM63.6678 16.3201C63.6678 16.3201 62.9631 16.7854 62.8202 16.9107C62.6747 17.0367 62.7172 17.1873 62.9019 17.1664V20.6237H63.6678V16.3201ZM45.5107 16.6974C45.5107 16.6974 44.6604 17.4787 44.5808 17.5825C44.4986 17.6934 44.7829 17.7939 44.7829 17.7939L44.7348 18.0989C44.7348 18.0989 44.3962 18.2744 43.9851 18.5523C43.5766 18.8271 43.2735 19.1778 43.2735 19.4206C43.2735 19.664 43.1705 20.6187 43.1705 20.6187H48.5782V18.0627C48.5782 18.0627 48.0897 18.3437 47.7804 18.6191C47.4731 18.8918 47.8434 18.9952 47.8434 18.9952V19.9152H45.5107L45.5107 16.6974ZM59.7415 18.4264V18.8492H59.2457C59.2457 18.5771 59.7415 18.4264 59.7415 18.4264ZM52.7353 18.8274H55.8994C56.5826 18.8274 56.477 19.187 56.477 19.4206C56.477 19.5459 56.471 19.7501 56.4651 19.9152H52.1371V19.1542C52.25 18.8612 52.4403 18.8274 52.7353 18.8274ZM44.7635 18.8917V19.9152H43.9595C43.9595 19.9152 43.8513 19.4202 44.1423 19.231C44.4346 19.0391 44.7635 18.8917 44.7635 18.8917ZM46.2498 20.8957C45.9588 20.8957 45.8787 21.02 45.8787 21.2543C45.8787 21.4866 45.9816 21.5718 46.2498 21.5718C46.5161 21.5718 46.7045 21.4657 46.7045 21.2543C46.7045 21.0409 46.582 20.8957 46.2498 20.8957ZM47.2833 20.8957C46.9923 20.8957 46.9129 21.02 46.9129 21.2543C46.9129 21.4866 47.0184 21.5718 47.2833 21.5718C47.5535 21.5718 47.7393 21.4657 47.7393 21.2543C47.7393 21.0409 47.6168 20.8957 47.2833 20.8957Z" fill="white"/>
</g>
<defs>
<clipPath id="clip0_11012_364">
<rect width="64" height="22.4" fill="white"/>
</clipPath>
</defs>
</svg>
