<svg width="40" height="40" viewBox="0 0 40 40" fill="none" xmlns="http://www.w3.org/2000/svg">
<rect width="40" height="40" rx="5.33333" fill="#7F0039"/>
<path d="M28.8889 23.8889C27.5556 23.8889 26.1111 23.6667 24.8889 23.2222H24.5556C24.2222 23.2222 24 23.3333 23.7778 23.5556L21.3333 26C18.2222 24.3333 15.5556 21.7778 14 18.6667L16.4444 16.2222C16.7778 15.8889 16.8889 15.4444 16.6667 15.1111C16.3333 13.8889 16.1111 12.4444 16.1111 11.1111C16.1111 10.5556 15.5556 10 15 10H11.1111C10.5556 10 10 10.5556 10 11.1111C10 21.5556 18.4444 30 28.8889 30C29.4444 30 30 29.4444 30 28.8889V25C30 24.4444 29.4444 23.8889 28.8889 23.8889ZM12.2222 12.2222H13.8889C14 13.2222 14.2222 14.2222 14.4444 15.1111L13.1111 16.4444C12.6667 15.1111 12.3333 13.6667 12.2222 12.2222ZM27.7778 27.7778C26.3333 27.6667 24.8889 27.3333 23.5556 26.8889L24.8889 25.5556C25.7778 25.7778 26.7778 26 27.7778 26V27.7778Z" fill="#EFC800"/>
</svg>
