<svg width="40" height="40" viewBox="0 0 40 40" fill="none" xmlns="http://www.w3.org/2000/svg">
<rect width="40" height="40" rx="5.33333" fill="#7F0039"/>
<path d="M20 26.6667V23.3334M20 26.6667C19.4106 26.6667 18.8454 26.9008 18.4287 27.3176C18.0119 27.7343 17.7778 28.2995 17.7778 28.8889M20 26.6667C20.5894 26.6667 21.1546 26.9008 21.5713 27.3176C21.9881 27.7343 22.2222 28.2995 22.2222 28.8889M20 23.3334C23.9889 23.3334 27.2222 20.1 27.2222 16.1111M20 23.3334C16.0111 23.3334 12.7778 20.1 12.7778 16.1111M17.7778 28.8889H10M17.7778 28.8889C17.7778 29.4783 18.0119 30.0435 18.4287 30.4603C18.8454 30.877 19.4106 31.1111 20 31.1111C20.5894 31.1111 21.1546 30.877 21.5713 30.4603C21.9881 30.0435 22.2222 29.4783 22.2222 28.8889M22.2222 28.8889H30M27.2222 16.1111C27.2222 12.1222 23.9889 8.88892 20 8.88892C16.0111 8.88892 12.7778 12.1222 12.7778 16.1111M27.2222 16.1111H12.7778" stroke="#EFC800" stroke-width="2.22222" stroke-linecap="round" stroke-linejoin="round"/>
<path d="M27.2222 16.1111H12.7778M22.7778 16.1111C22.7778 20.1 21.5339 23.3334 20 23.3334C18.4661 23.3334 17.2222 20.1 17.2222 16.1111C17.2222 12.1222 18.4661 8.88892 20 8.88892C21.5339 8.88892 22.7778 12.1222 22.7778 16.1111Z" stroke="#EFC800" stroke-width="2.22222" stroke-linecap="round" stroke-linejoin="round"/>
</svg>
